<?xml version="1.0" standalone="no"?>
<!DOCTYPE svg PUBLIC "-//W3C//DTD SVG 20010904//EN"
 "http://www.w3.org/TR/2001/REC-SVG-20010904/DTD/svg10.dtd">
<svg version="1.0" xmlns="http://www.w3.org/2000/svg"
 width="128.000000pt" height="128.000000pt" viewBox="0 0 128.000000 128.000000"
 preserveAspectRatio="xMidYMid meet">
<metadata>
Created by potrace 1.11, written by Peter Selinger 2001-2013
</metadata>
<g transform="translate(0.000000,128.000000) scale(0.100000,-0.100000)"
fill="#000000" stroke="none">
<path d="M60 1235 c0 -8 -7 -15 -15 -15 -22 0 -18 -22 10 -49 l25 -23 26 26
26 26 -23 25 c-27 28 -49 32 -49 10z"/>
<path d="M215 1207 c-56 -26 -68 -50 -72 -140 -5 -110 3 -161 33 -197 l26 -30
-32 -17 c-66 -36 -95 -59 -117 -92 -22 -32 -31 -90 -15 -92 4 -1 29 -2 55 -3
45 -2 73 -19 61 -38 -6 -9 16 -100 29 -116 7 -8 13 -9 22 -2 10 8 9 23 -2 72
-8 33 -12 66 -10 72 3 7 56 11 166 10 183 0 188 2 172 63 -13 47 -48 82 -119
118 -44 22 -51 28 -40 38 34 28 50 70 51 136 l2 66 50 22 c28 12 58 22 67 23
35 0 68 19 62 35 -8 19 -51 13 -133 -16 -43 -16 -52 -17 -48 -5 6 16 -17 41
-30 33 -5 -3 -31 -1 -59 4 -63 12 -104 -1 -104 -31 0 -17 4 -20 23 -15 12 4
26 8 32 9 5 0 10 -50 10 -126 0 -140 -2 -143 -59 -117 -40 18 -54 63 -53 167
0 91 1 93 30 118 28 24 36 25 81 18 78 -12 120 -12 133 -2 21 17 3 34 -35 34
-20 0 -62 3 -92 7 -39 5 -64 3 -85 -6z m80 -431 c-2 -25 3 -55 11 -71 8 -15
14 -28 14 -29 0 -2 -243 1 -248 3 -2 0 5 14 14 31 10 16 43 43 76 60 31 17 60
35 63 40 4 6 21 10 40 10 l34 0 -4 -44z"/>
<path d="M804 1209 c-3 -6 0 -17 7 -25 18 -17 44 -2 36 20 -7 18 -33 21 -43 5z"/>
<path d="M945 1194 c-39 -13 -74 -47 -75 -71 0 -16 -5 -16 -60 3 -25 9 -66 18
-92 21 -39 4 -48 2 -48 -10 0 -21 7 -24 60 -32 25 -4 65 -15 90 -26 l45 -19 1
-79 c0 -70 4 -84 27 -115 15 -19 27 -37 27 -41 0 -3 -19 -15 -43 -25 -24 -11
-57 -33 -75 -49 -36 -35 -61 -109 -41 -122 28 -17 -4 -23 -66 -12 -78 13 -133
2 -167 -34 -21 -22 -23 -36 -26 -133 -4 -110 4 -145 43 -183 13 -14 12 -18
-10 -36 -24 -18 -29 -18 -60 -5 -56 23 -95 50 -147 100 -30 29 -53 44 -63 40
-8 -3 -15 -10 -15 -15 0 -20 124 -122 185 -151 71 -34 88 -33 134 6 20 16 39
24 57 21 25 -3 27 -7 28 -59 1 -31 8 -63 15 -72 12 -14 0 -15 -113 -15 -118 0
-126 1 -117 18 7 12 20 17 41 15 30 -2 51 18 36 33 -4 4 -50 7 -102 8 -72 1
-97 -2 -101 -12 -8 -20 3 -27 44 -28 35 -1 37 -2 37 -35 l1 -35 250 0 250 0 1
22 c1 26 -29 97 -45 108 -7 4 12 21 49 43 66 40 150 117 150 138 0 31 -25 22
-76 -29 -31 -32 -81 -68 -118 -87 -63 -30 -65 -30 -99 -14 l-35 17 30 41 c28
40 29 48 30 149 1 59 -1 110 -5 113 -3 3 -30 8 -61 10 -30 2 -58 4 -63 5 -22
4 -43 -2 -57 -17 -22 -22 -10 -36 25 -29 21 5 29 3 30 -7 1 -33 -1 -242 -4
-243 -1 -1 -16 2 -34 7 -55 15 -73 58 -70 173 2 93 3 99 28 118 29 21 53 23
141 12 64 -9 98 6 77 31 -10 12 15 14 155 14 186 0 175 5 155 -75 -6 -25 -8
-52 -5 -62 12 -30 35 7 48 75 l12 62 48 0 c57 0 66 13 49 70 -12 41 -53 82
-105 105 -60 27 -61 29 -30 70 27 36 29 43 30 150 l2 113 -56 6 c-90 11 -113
9 -129 -7 -22 -22 -7 -39 27 -32 l29 6 -2 -128 -2 -128 -25 3 c-73 10 -94 77
-81 263 1 21 44 50 79 52 15 2 47 -3 72 -9 30 -7 54 -8 73 -2 47 17 32 35 -35
42 -35 3 -74 8 -88 10 -15 2 -44 -2 -65 -10z m74 -442 c-1 -37 4 -59 17 -73
17 -19 15 -19 -109 -19 -70 0 -127 3 -127 8 0 27 45 74 89 93 28 11 55 27 62
35 6 7 24 12 39 11 28 -2 29 -4 29 -55z"/>
<path d="M1188 912 l-27 -27 26 -23 c31 -27 33 -27 60 2 l22 23 -27 26 -27 26
-27 -27z"/>
<path d="M337 541 c-6 -24 19 -36 39 -20 11 9 11 15 3 25 -16 20 -36 17 -42
-5z"/>
<path d="M863 512 c-9 -22 4 -26 87 -27 53 -1 84 3 91 11 17 21 -10 29 -95 29
-56 1 -80 -3 -83 -13z"/>
<path d="M22 413 c3 -25 7 -28 46 -29 40 -1 42 0 42 27 0 28 -2 29 -46 29 -44
0 -45 -1 -42 -27z"/>
<path d="M22 332 c3 -24 7 -27 43 -27 35 0 40 3 43 25 3 24 0 25 -43 27 -45 2
-46 2 -43 -25z"/>
<path d="M1069 301 c-7 -19 -21 -33 -41 -40 -37 -13 -32 -37 8 -34 35 3 74 44
74 79 0 34 -29 31 -41 -5z"/>
<path d="M1127 324 c-14 -15 20 -79 50 -93 33 -15 50 -14 57 4 4 10 -5 19 -28
29 -22 9 -36 23 -40 40 -6 24 -25 34 -39 20z"/>
<path d="M26 272 c-4 -3 -6 -16 -6 -29 0 -21 5 -23 45 -23 43 0 45 1 45 28 0
26 -3 28 -39 29 -22 0 -42 -2 -45 -5z"/>
<path d="M1004 198 c-7 -12 21 -38 42 -38 7 0 17 -13 23 -30 13 -38 41 -40 41
-4 0 49 -84 107 -106 72z"/>
<path d="M1166 189 c-34 -27 -47 -58 -34 -82 7 -15 12 -16 24 -6 8 6 14 20 14
30 0 12 13 24 36 34 20 8 34 20 32 27 -7 22 -43 20 -72 -3z"/>
<path d="M151 153 c-36 -45 -9 -102 49 -103 34 0 47 10 60 45 25 66 -65 115
-109 58z m66 -24 c15 -15 5 -39 -17 -39 -22 0 -32 24 -17 39 6 6 14 11 17 11
3 0 11 -5 17 -11z"/>
</g>
</svg>
